<?xml version="1.0" encoding="utf-8" ?>
<svg baseProfile="full" height="400px" version="1.1" viewBox="0 0 400 400" width="400px" xmlns="http://www.w3.org/2000/svg" xmlns:ev="http://www.w3.org/2001/xml-events" xmlns:xlink="http://www.w3.org/1999/xlink"><defs /><circle cx="200" cy="200" fill="#059669" opacity="0.05" r="190" /><polygon fill="#059669" opacity="0.9" points="200,30 340,80 340,230 200,370 60,230 60,80" stroke="#047857" stroke-width="3" /><polygon fill="#10B981" opacity="0.2" points="200,50 325,95 325,225 200,355 75,225 75,95" /><polygon fill="#FFFFFF" opacity="0.9" points="200,190 140,170 140,230 200,215" /><polygon fill="#FFFFFF" opacity="0.85" points="200,190 260,170 260,230 200,215" /><line stroke="#047857" stroke-width="2" x1="200" x2="200" y1="185" y2="220" /><line opacity="0.4" stroke="#059669" stroke-width="1" x1="150" x2="190" y1="190" y2="195" /><line opacity="0.4" stroke="#059669" stroke-width="1" x1="150" x2="190" y1="202" y2="207" /><line opacity="0.4" stroke="#059669" stroke-width="1" x1="150" x2="190" y1="214" y2="219" /><line opacity="0.4" stroke="#059669" stroke-width="1" x1="210" x2="250" y1="195" y2="190" /><line opacity="0.4" stroke="#059669" stroke-width="1" x1="210" x2="250" y1="207" y2="202" /><line opacity="0.4" stroke="#059669" stroke-width="1" x1="210" x2="250" y1="219" y2="214" /><polygon fill="#F59E0B" points="200,95 260,120 200,130 140,120" stroke="#047857" stroke-width="1.5" /><line stroke="#047857" stroke-width="2" x1="200" x2="200" y1="130" y2="160" /><circle cx="200" cy="164" fill="#F59E0B" r="3" /><ellipse cx="166.0" cy="280" fill="#10B981" opacity="0.7" rx="5" ry="3" stroke="#059669" stroke-width="0.5" /><ellipse cx="163.6" cy="294" fill="#10B981" opacity="0.7" rx="5" ry="3" stroke="#059669" stroke-width="0.5" /><ellipse cx="161.2" cy="308" fill="#10B981" opacity="0.7" rx="5" ry="3" stroke="#059669" stroke-width="0.5" /><ellipse cx="158.8" cy="322" fill="#10B981" opacity="0.7" rx="5" ry="3" stroke="#059669" stroke-width="0.5" /><ellipse cx="156.4" cy="336" fill="#10B981" opacity="0.7" rx="5" ry="3" stroke="#059669" stroke-width="0.5" /><ellipse cx="234.0" cy="280" fill="#10B981" opacity="0.7" rx="5" ry="3" stroke="#059669" stroke-width="0.5" /><ellipse cx="236.4" cy="294" fill="#10B981" opacity="0.7" rx="5" ry="3" stroke="#059669" stroke-width="0.5" /><ellipse cx="238.8" cy="308" fill="#10B981" opacity="0.7" rx="5" ry="3" stroke="#059669" stroke-width="0.5" /><ellipse cx="241.2" cy="322" fill="#10B981" opacity="0.7" rx="5" ry="3" stroke="#059669" stroke-width="0.5" /><ellipse cx="243.6" cy="336" fill="#10B981" opacity="0.7" rx="5" ry="3" stroke="#059669" stroke-width="0.5" /><text fill="#FFFFFF" font-family="Georgia, serif" font-size="32" font-weight="bold" letter-spacing="3" text-anchor="middle" x="200" y="280">GREENFIELD</text><text fill="#F59E0B" font-family="Georgia, serif" font-size="22" font-weight="normal" letter-spacing="5" text-anchor="middle" x="200" y="310">ACADEMY</text><text fill="#FFFFFF" font-family="Arial, sans-serif" font-size="11" letter-spacing="2" opacity="0.7" text-anchor="middle" x="200" y="338">EST. 2005  •  NAIROBI</text><text fill="#F59E0B" font-size="10" opacity="0.6" text-anchor="middle" x="120" y="310">★</text><text fill="#F59E0B" font-size="10" opacity="0.6" text-anchor="middle" x="280" y="310">★</text></svg>